<svg width="150" height="46" viewBox="0 0 150 46" fill="none" xmlns="http://www.w3.org/2000/svg">
<path d="M26.2215 19.3464C23.4395 16.4714 19.3554 15.4531 15.9815 15.4531C7.10289 15.4531 0 21.4427 0 30.7266C0 40.0104 7.10289 46 15.9815 46C19.3554 46 23.4395 44.9818 26.2215 42.1068L20.3616 35.8776C19.3554 37.0755 17.9348 38.0938 15.9815 38.0938C11.5422 38.0938 8.87861 35.099 8.87861 30.7266C8.87861 26.3542 11.5422 23.3594 15.9815 23.3594C17.8164 23.3594 19.4738 24.3177 20.3616 25.5755L26.2215 19.3464ZM28.8509 0V45.2812H37.7295V30.7865C37.7295 27.013 38.4398 23.3594 43.0566 23.3594C47.6143 23.3594 47.6735 27.6719 47.6735 31.026V45.2812H56.5521V29.2292C56.5521 21.4427 54.8948 15.4531 45.8978 15.4531C41.5769 15.4531 38.6765 17.849 37.8479 20.125H37.7295V0H28.8509ZM80.3006 45.2812H88.4689V30.487C88.4689 20.7839 85.6869 15.4531 75.3286 15.4531C70.6525 15.4531 65.9172 17.0104 62.6617 20.125L67.397 25.0365C69.2911 22.8802 71.7179 21.5625 74.6183 21.5625C77.6962 21.5625 80.3006 23.599 80.3006 26.7734C72.9017 26.7734 60.8268 26.9531 60.8268 37.0156C60.8268 42.8854 65.6805 46 71.0668 46C74.6775 46 78.2289 44.7422 80.1822 41.6276H80.3006V45.2812ZM80.3006 32.5234V34.4401C80.3006 38.0339 77.0451 39.8906 73.5528 39.8906C71.5995 39.8906 69.3503 38.8724 69.3503 36.7161C69.3503 32.763 75.3877 32.5234 78.1105 32.5234H80.3006ZM118.781 19.3464C116 16.4714 111.915 15.4531 108.542 15.4531C99.6629 15.4531 92.56 21.4427 92.56 30.7266C92.56 40.0104 99.6629 46 108.542 46C111.915 46 116 44.9818 118.781 42.1068L112.922 35.8776C111.915 37.0755 110.495 38.0938 108.542 38.0938C104.102 38.0938 101.439 35.099 101.439 30.7266C101.439 26.3542 104.102 23.3594 108.542 23.3594C110.376 23.3594 112.034 24.3177 112.922 25.5755L118.781 19.3464ZM142.424 35.638C140.944 37.6745 138.991 39.1719 136.09 39.1719C132.657 39.1719 130.112 36.9557 129.402 33.5417H150V30.7266C150 21.4427 144.791 15.4531 136.505 15.4531C127.626 15.4531 120.523 21.4427 120.523 30.7266C120.523 40.0104 127.626 46 136.505 46C141.121 46 145.797 43.9036 148.639 40.25L142.424 35.638ZM129.402 27.4323C129.638 24.6172 131.769 21.9219 135.676 21.9219C138.872 21.9219 141.181 24.4375 141.121 27.4323H129.402Z" fill="#F1C086"/>
</svg>
